<svg width="32" height="32" fill="none" xmlns="http://www.w3.org/2000/svg"><path d="M14.97 26.85a.998.998 0 01-1.213.728l-3.767-.942a2.013 2.013 0 01-.827-.43l-2.819-2.451a1 1 0 011.312-1.51l2.82 2.45 3.767.943a1.001 1.001 0 01.727 1.212zm16.575-11.906a1.986 1.986 0 01-1.008 1.173l-2.909 1.455-1.868 2.186-.02.022a1.152 1.152 0 01-.019.02l-.014.015-4.6 4.6a2.012 2.012 0 01-1.899.526l-7.244-1.812a1.99 1.99 0 01-.748-.364l-6.753-5.281-3-1.5a2 2 0 01-.878-2.715l3.074-5.887a2.01 2.01 0 012.667-.863l2.797 1.398 6.084-1.773c.458-.134.95-.1 1.384.097l4.125 1.867h2.048l2.91-1.455a2.009 2.009 0 012.667.863l3.074 5.887a1.986 1.986 0 01.13 1.541zm-8.08 4.284l-3.956-2.877-1.009.757a5.026 5.026 0 01-6 0l-.678-.509a2 2 0 01-.214-3.014L16.5 8.694c.072-.07.148-.136.23-.195l-.963-.435-6.09 1.775-3.405 6.52 6.177 4.83L19.693 23l3.772-3.772zm2.336-2.596l-3.407-6.524h-4.479L13.022 15l.677.508a3.016 3.016 0 003.6 0l1.6-1.2a1 1 0 011.188-.009l4.752 3.456.96-1.123z" fill="#239651"/></svg>